# Blender 4.1.1
# www.blender.org
mtllib 无标题.mtl
o 3dw.3e18df9aea04c8cdbc7fb81194b2b6a8/Model/mesh1/mesh1-geometry
v -0.697797 -0.188150 -0.472830
v -0.697797 -0.188150 0.512370
v 0.692334 -0.188150 -0.472830
vn -0.0000 1.0000 -0.0000
vt 1039.073364 1123.096436
vt 1039.073364 514.846436
vt 180.823349 1123.096436
s 0
usemtl material_0_0
f 1/1/1 2/2/1 3/3/1
o 3dw.3e18df9aea04c8cdbc7fb81194b2b6a8/Model/mesh1/mesh1-geom
v 0.692334 -0.188150 -0.472830
v -0.697797 -0.188150 0.512370
v -0.697797 -0.188150 -0.472830
vn -0.0000 -1.0000 -0.0000
vt 180.823349 1123.096436
vt 1039.073364 514.846436
vt 1039.073364 1123.096436
s 0
usemtl material_0_0
f 4/4/2 5/5/2 6/6/2
o 3dw.3e18df9aea04c8cdbc7fb81194b2b6a8/Model/mesh1/mesh1-geom.001
v 0.692334 -0.188150 0.512370
v 0.692334 -0.188150 -0.472830
v -0.697797 -0.188150 0.512370
vn -0.0000 1.0000 -0.0000
vt 180.823349 514.846436
vt 180.823349 1123.096436
vt 1039.073364 514.846436
s 0
usemtl material_0_0
f 7/7/3 8/8/3 9/9/3
o 3dw.3e18df9aea04c8cdbc7fb81194b2b6a8/Model/mesh1/mesh1-geom.002
v -0.697797 -0.188150 0.512370
v 0.692334 -0.188150 -0.472830
v 0.692334 -0.188150 0.512370
vn -0.0000 -1.0000 -0.0000
vt 1039.073364 514.846436
vt 180.823349 1123.096436
vt 180.823349 514.846436
s 0
usemtl material_0_0
f 10/10/4 11/11/4 12/12/4
o 3dw.3e18df9aea04c8cdbc7fb81194b2b6a8/Model/mesh1/mesh1-geom.003
v 0.692334 -0.188150 0.512370
v 0.692334 0.258490 0.512370
v 0.692334 -0.188150 -0.472830
vn -1.0000 -0.0000 -0.0000
vt 514.846436 0.000000
vt 514.846436 275.750000
vt 1123.096436 0.000000
s 0
usemtl material_0_0
f 13/13/5 14/14/5 15/15/5
o 3dw.3e18df9aea04c8cdbc7fb81194b2b6a8/Model/mesh1/mesh1-geom.004
v 0.692334 -0.188150 0.512370
v -0.697797 -0.188150 0.512370
v 0.692334 0.258490 0.512370
vn -0.0000 -0.0000 -1.0000
vt -180.823349 0.000000
vt -1039.073364 0.000000
vt -180.823349 275.750000
s 0
usemtl material_0_0
f 16/16/6 17/17/6 18/18/6
o 3dw.3e18df9aea04c8cdbc7fb81194b2b6a8/Model/mesh1/mesh1-geom.005
v 0.692334 0.258490 0.512370
v 0.692334 -0.188150 0.512370
v -0.697797 -0.188150 0.512370
vn -0.0000 -0.0000 1.0000
vt -180.823349 275.750000
vt -1039.073364 0.000000
vt -180.823349 0.000000
s 0
usemtl material_0_0
f 19/19/7 21/20/7 20/21/7
o 3dw.3e18df9aea04c8cdbc7fb81194b2b6a8/Model/mesh1/mesh1-geom.006
v -0.697797 0.258490 0.512370
v 0.692334 0.258490 0.512370
v -0.697797 -0.188150 0.512370
vn -0.0000 -0.0000 -1.0000
vt -1039.073364 275.750000
vt -180.823349 275.750000
vt -1039.073364 0.000000
s 0
usemtl material_0_0
f 22/22/8 23/23/8 24/24/8
o 3dw.3e18df9aea04c8cdbc7fb81194b2b6a8/Model/mesh1/mesh1-geom.007
v -0.697797 -0.188150 0.512370
v 0.692334 0.258490 0.512370
v -0.697797 0.258490 0.512370
vn -0.0000 -0.0000 1.0000
vt -1039.073364 0.000000
vt -180.823349 275.750000
vt -1039.073364 275.750000
s 0
usemtl material_0_0
f 25/25/9 26/26/9 27/27/9
o 3dw.3e18df9aea04c8cdbc7fb81194b2b6a8/Model/mesh1/mesh1-geom.008
v -0.697797 0.258490 0.512370
v -0.697797 -0.188150 0.512370
v -0.697797 0.258490 -0.472830
vn 1.0000 -0.0000 -0.0000
vt -514.846436 275.750000
vt -514.846436 0.000000
vt -1123.096436 275.750000
s 0
usemtl material_0_0
f 28/28/10 29/29/10 30/30/10
o 3dw.3e18df9aea04c8cdbc7fb81194b2b6a8/Model/mesh1/mesh1-geom.009
v -0.697797 0.258490 -0.472830
v -0.697797 -0.188150 0.512370
v -0.697797 0.258490 0.512370
vn -1.0000 -0.0000 -0.0000
vt -1123.096436 275.750000
vt -514.846436 0.000000
vt -514.846436 275.750000
s 0
usemtl material_0_0
f 31/31/11 32/32/11 33/33/11
o 3dw.3e18df9aea04c8cdbc7fb81194b2b6a8/Model/mesh1/mesh1-geom.010
v -0.697797 -0.188150 -0.472830
v -0.697797 0.258490 -0.472830
v -0.697797 -0.188150 0.512370
vn 1.0000 -0.0000 -0.0000
vt -1123.096436 0.000000
vt -1123.096436 275.750000
vt -514.846436 0.000000
s 0
usemtl material_0_0
f 34/34/12 35/35/12 36/36/12
o 3dw.3e18df9aea04c8cdbc7fb81194b2b6a8/Model/mesh1/mesh1-geom.011
v -0.697797 -0.188150 0.512370
v -0.697797 0.258490 -0.472830
v -0.697797 -0.188150 -0.472830
vn -1.0000 -0.0000 -0.0000
vt -514.846436 0.000000
vt -1123.096436 275.750000
vt -1123.096436 0.000000
s 0
usemtl material_0_0
f 37/37/13 38/38/13 39/39/13
o 3dw.3e18df9aea04c8cdbc7fb81194b2b6a8/Model/mesh1/mesh1-geom.012
v -0.697797 -0.188150 -0.472830
v 0.692334 -0.188150 -0.472830
v -0.697797 0.258490 -0.472830
vn -0.0000 -0.0000 1.0000
vt 1039.073364 0.000000
vt 180.823349 0.000000
vt 1039.073364 275.750000
s 0
usemtl material_0_0
f 40/40/14 41/41/14 42/42/14
o 3dw.3e18df9aea04c8cdbc7fb81194b2b6a8/Model/mesh1/mesh1-geom.013
v -0.697797 0.258490 -0.472830
v -0.697797 -0.188150 -0.472830
v 0.692334 -0.188150 -0.472830
vn -0.0000 -0.0000 -1.0000
vt 1039.073364 275.750000
vt 180.823349 0.000000
vt 1039.073364 0.000000
s 0
usemtl material_0_0
f 43/43/15 45/44/15 44/45/15
o 3dw.3e18df9aea04c8cdbc7fb81194b2b6a8/Model/mesh1/mesh1-geom.014
v 0.692334 0.258490 -0.472830
v -0.697797 0.258490 -0.472830
v 0.692334 -0.188150 -0.472830
vn -0.0000 -0.0000 1.0000
vt 180.823349 275.750000
vt 1039.073364 275.750000
vt 180.823349 0.000000
s 0
usemtl material_0_0
f 46/46/16 47/47/16 48/48/16
o 3dw.3e18df9aea04c8cdbc7fb81194b2b6a8/Model/mesh1/mesh1-geom.015
v 0.692334 -0.188150 -0.472830
v -0.697797 0.258490 -0.472830
v 0.692334 0.258490 -0.472830
vn -0.0000 -0.0000 -1.0000
vt 180.823349 0.000000
vt 1039.073364 275.750000
vt 180.823349 275.750000
s 0
usemtl material_0_0
f 49/49/17 50/50/17 51/51/17
o 3dw.3e18df9aea04c8cdbc7fb81194b2b6a8/Model/mesh1/mesh1-geom.016
v 0.692334 0.258490 -0.472830
v 0.692334 -0.188150 -0.472830
v 0.692334 0.258490 0.512370
vn -1.0000 -0.0000 -0.0000
vt 1123.096436 275.750000
vt 1123.096436 0.000000
vt 514.846436 275.750000
s 0
usemtl material_0_0
f 52/52/18 53/53/18 54/54/18
o 3dw.3e18df9aea04c8cdbc7fb81194b2b6a8/Model/mesh1/mesh1-geom.017
v 0.692334 0.258490 0.512370
v 0.692334 -0.188150 -0.472830
v 0.692334 0.258490 -0.472830
vn 1.0000 -0.0000 -0.0000
vt 514.846436 275.750000
vt 1123.096436 0.000000
vt 1123.096436 275.750000
s 0
usemtl material_0_0
f 55/55/19 56/56/19 57/57/19
o 3dw.3e18df9aea04c8cdbc7fb81194b2b6a8/Model/mesh1/mesh1-geom.018
v 0.692334 -0.188150 -0.472830
v 0.692334 -0.188150 0.512370
v 0.692334 0.258490 0.512370
vn 1.0000 -0.0000 -0.0000
vt 1123.096436 0.000000
vt 514.846436 275.750000
vt 514.846436 0.000000
s 0
usemtl material_0_0
f 58/58/20 60/59/20 59/60/20
